<svg width="80" height="80" xmlns="http://www.w3.org/2000/svg">

 <g>
  <title>background</title>
  <rect fill="none" id="canvas_background" height="402" width="582" y="-1" x="-1"/>
 </g>
 <g>
  <title>Layer 1</title>
  <path fill="#1c2b36" id="svg_1" d="m40.099998,13c-0.099998,0 -0.099998,0 0,0c-0.099998,0 -0.099998,0 -0.099998,0c-2.799999,0 -5.099998,-0.2 -6.099998,0.2c1.699997,3.2 4.699997,7.099999 6.199997,8.8c1.5,-1.799999 4.5,-5.6 6.200001,-8.8c-1.200001,-0.5 -3.399998,-0.2 -6.200001,-0.2zm28.400002,30c-0.400002,-1.900002 -1.400002,-4.299999 -2.699997,-10.099998c-2.800003,-12.900002 -4.100002,-15.700001 -8.200005,-17.100001c-0.5,-0.2 -1.199997,-0.400001 -2,-0.7l0,0c0,0 0,0 0,0c-0.399998,-0.200001 -0.899998,-0.3 -1.399998,-0.5c-5.299999,-2.400001 -5.700001,-6 -7.799999,-6.400001c-1.300003,-0.2 -3.700001,-0.099999 -6.400002,-0.099999c-2.700001,0 -5.099998,-0.1 -6.400002,0.099999c-2.199999,0.400001 -2.599998,4 -7.799999,6.400001c-0.5,0.2 -1,0.299999 -1.4,0.5c0,0 0,0 0,0c0,0 0,0 0,0c-0.799999,0.299999 -1.5,0.5 -2,0.7c-4.1,1.400001 -5.4,4.2 -8.2,17.100001c-1.3,5.799999 -2.2,8.199997 -2.7,10.099998c-0.4,1.900002 -0.3,17.799999 0.2,19.599998c0.400001,1.300003 1.2,1.5 1.2,2.099998l0.400001,3.800003l5.900001,0l0.4,-4.5c2,-2 0.5,-11.099998 1,-18.5c1.199999,-4 2.699999,-8 3.199999,-10.5c1.6,10 -0.9,30 -2,33.099998c1.400002,2.400002 9.300001,3.700005 16.700001,3.800003l1,-3.400002l0,-46.6c-1.700001,-1.4 -6.099998,-4.9 -6.099998,-4.9l-10.000002,0c0,0 7.300001,-2.8 9.000002,-7.2c0,0.599999 0.199997,1.099999 0.599998,2c0,-0.3 0,-0.7 0,-0.900001c0.299999,-1.4 3,-1 6.799999,-1c0,0 0,0 0.100002,0c0,0 0,0 0.099998,0c3.799999,0 6.599998,-0.4 6.799999,1c0.100002,0.3 0.100002,0.6 0,0.900001c0.400002,-0.900001 0.600002,-1.400001 0.600002,-2c1.699997,4.3 9,7.2 9,7.2l-10.200001,0c0,0 -3.700001,3.5 -5.900002,4.9l0,46.6l1,3.400002c7.400002,-0.099998 15.200001,-1.400002 16.600002,-3.800003c-1.100002,-3.099998 -3.600002,-23.099998 -2,-33.099998c0.5,2.5 2,6.5 3.199997,10.5c0.5,7.400002 -1,16.400002 1,18.5l0.400002,4.5l5.900002,0l0.400002,-3.800003c0,-0.599998 0.899994,-0.799995 1.199997,-2.099998c0.800003,-1.799999 0.900002,-17.699997 0.5,-19.599998zm-50.799999,24.400002c-0.400002,0 -0.800001,-0.400002 -0.800001,-0.800003c0,-0.400002 0.4,-0.799995 0.800001,-0.799995c0.4,0 0.799999,0.399994 0.799999,0.799995c0,0.400002 -0.299999,0.800003 -0.799999,0.800003zm20.799999,-44.600002c0.599998,0 1.099998,0.5 1.099998,1.1c0,0.6 -0.5,1.1 -1.099998,1.1c-0.599998,0 -1.099998,-0.5 -1.099998,-1.1c0,-0.6 0.5,-1.1 1.099998,-1.1zm-0.5,32c0.599998,0 1.099998,0.5 1.099998,1.100002c0,0.599998 -0.5,1.099998 -1.099998,1.099998c-0.599998,0 -1.099998,-0.5 -1.099998,-1.099998c0,-0.600002 0.5,-1.100002 1.099998,-1.100002zm0,-10.599998c0.599998,0 1.099998,0.5 1.099998,1.099998c0,0.600002 -0.5,1.100002 -1.099998,1.100002c-0.599998,0 -1.099998,-0.5 -1.099998,-1.100002c0,-0.599998 0.5,-1.099998 1.099998,-1.099998zm0,-10.600002c0.599998,0 1.099998,0.5 1.099998,1.100002c0,0.599998 -0.5,1.099998 -1.099998,1.099998c-0.599998,0 -1.099998,-0.5 -1.099998,-1.099998c0,-0.600002 0.5,-1.100002 1.099998,-1.100002zm0,31.800003c0.599998,0 1.099998,0.5 1.099998,1.099998c0,0.599998 -0.5,1.099998 -1.099998,1.099998c-0.599998,0 -1.099998,-0.5 -1.099998,-1.099998c0,-0.599998 0.5,-1.099998 1.099998,-1.099998zm24.299999,2c-0.5,0 -0.799999,-0.400002 -0.799999,-0.800003c0,-0.5 0.400002,-0.799995 0.799999,-0.799995c0.5,0 0.799999,0.399994 0.799999,0.799995c0,0.400002 -0.299999,0.800003 -0.799999,0.800003z" class="st0"/>
 </g>
</svg>