<svg width="80" height="80" xmlns="http://www.w3.org/2000/svg">

 <g>
  <title>background</title>
  <rect fill="none" id="canvas_background" height="402" width="582" y="-1" x="-1"/>
 </g>
 <g>
  <title>Layer 1</title>
  <path fill="#1c2b36" id="svg_1" d="m63.799999,18.799999c-1.099998,-1.4 -9.399998,-2.5 -13.700001,-5.799999c0,0 -0.599998,-0.2 -1,0.3c-2.099998,3.099999 -4.199997,5.7 -9.099998,5.7c-4.900002,0 -7,-2.6 -9.1,-5.7c-0.299999,-0.5 -1,-0.3 -1,-0.3c-4.299999,3.200001 -12.6,4.4 -13.699999,5.799999c-2.400001,3.1 -5.800001,9.900002 -8.1,14.299999c2.099999,3.5 6.9,5.600002 10.299999,5.900002c1.1,-1.099998 2.800001,-4.299999 3.800001,-4.299999c0.5,0 1.5,3.399998 1.5,10.700001c0,5.5 -1.800001,16.599998 -1.800001,20.099998c4.300001,1.599998 13.1,1.5 18.1,1.5s13.799999,0.099998 18.099998,-1.5c0,-3.5 -1.799999,-14.599998 -1.799999,-20.099998c0,-7.300003 1,-10.700001 1.5,-10.700001c1,0 2.700001,3.200001 3.799999,4.299999c3.300003,-0.299999 8.099998,-2.5 10.300003,-5.900002c-2.300003,-4.399998 -5.700005,-11.199999 -8.100002,-14.299999z" class="st0"/>
 </g>
</svg>