<svg width="80" height="80" xmlns="http://www.w3.org/2000/svg">

 <g>
  <title>background</title>
  <rect fill="none" id="canvas_background" height="402" width="582" y="-1" x="-1"/>
 </g>
 <g>
  <title>Layer 1</title>
  <path fill="#ffaa56" id="svg_1" d="m40.099998,35.799999l6,-20.199999c0,0 0.200001,-0.700001 0,-0.900001c-2.099998,-2.099999 -9.799999,-2.099999 -11.899998,0c-0.200001,0.2 0,0.900001 0,0.900001l5.899998,20.199999zm2.100002,28.299999c0,-0.099998 -1.5,-7.599998 -2.100002,-15.899998c-0.699997,8.299999 -2.299999,15.799999 -2.299999,15.899998l-0.099998,0.300003l-1.100002,0.699997l6.700001,0l-1.099998,-0.699997l0,-0.300003zm-3.400002,-27.699997c0,0 0,0 0,0l-11.4,-12.700001l4.6,-2.800001l-5.6,-2.1c-2.5,1.1 -5.6,2.400002 -9.299999,3.800001c0,0.299999 -2.900001,15.499998 -8.900001,35.999998l8.400001,2.200001c0,0 6.299999,-27 7.699999,-27c1.300001,0 1.6,10.5 -4,28.900002l12.400002,4.100002l4.099998,-2.800003c0,0 3.100002,-16.299999 2,-27.599998zm-5.599998,20.399998l-7.700001,-1.5l0.200001,-0.799999l7.700001,1.5l-0.200001,0.799999zm22.599998,-23c1.400002,0 7.700001,27 7.700001,27l8.400002,-2.200001c-6,-20.399998 -8.900002,-35.599998 -8.900002,-35.999998c-3.700001,-1.4 -6.900002,-2.700001 -9.299999,-3.800001l-5.700001,2.1l4.599998,2.800001l-11.399998,12.700001c0,0 0,0 0,0c-1.100002,11.299999 2,27.599998 2,27.599998l4.099998,2.800003l12.400002,-4.100002c-5.600002,-18.400002 -5.200001,-28.900002 -3.900002,-28.900002zm-9,23l-0.200001,-0.799999l7.700001,-1.5l0.200001,0.799999l-7.700001,1.5z" class="st0"/>
 </g>
</svg>