<svg width="80" height="80" xmlns="http://www.w3.org/2000/svg">

 <g>
  <title>background</title>
  <rect fill="none" id="canvas_background" height="402" width="582" y="-1" x="-1"/>
 </g>
 <g>
  <title>Layer 1</title>
  <path fill="#ffaa56" id="svg_1" d="m59.5,35c-1.200001,-1.700001 -11,-2.900002 -11.599998,-4.5c-0.800003,-2.299999 3.799999,-4.799999 3,-10.4c-0.400002,-3.1 -3.400002,-8 -6.200001,-10.200001c-2,-1.599999 -3.200001,-1.799999 -4.700001,-1.799999c-1.5,0 -2.799999,0.2 -4.700001,1.799999c-2.799999,2.200001 -5.799999,7.1 -6.199999,10.200001c-0.800001,5.699999 3.800001,8.199999 2.999998,10.4c-0.599998,1.599998 -10.299999,2.799999 -11.599998,4.5c-1.799999,2.400002 -7.6,13.700001 -8.2,17.400002c0.9,5.5 6.2,19.400002 6.2,19.400002c1.5,0.099998 4.200001,-0.600006 5.200001,-1.5c0,0 -3.5,-13.800003 -3.400002,-15.600002c0.5,-1.400002 3.900002,-8.900002 4.700001,-8.900002c0.4,0 1.6,3.799999 1.6,9.400002c0,3.099998 -1.5,7.599998 -1.800001,10.499996c-0.099998,0.900002 1.5,3.100006 2.400002,3.900002c3.299999,1.200005 8.599998,2.099998 12.399998,2c0,0 0,-38.799999 0,-38.799999c0,-0.5 -1.199997,-1.599998 -1.199997,-1.599998c-0.700001,-0.700001 -1.400002,-1.5 -2.400002,-2.200001c-1.799999,-1.200001 -4.200001,-4.799999 -2.599998,-8c1.099998,-2.299999 2.299999,-3.6 3.899998,-4.9c1.100002,-0.900001 1.799999,-1 2.700001,-1c0.900002,0 1.599998,0.099999 2.700001,1c1.599998,1.299999 2.799999,2.699999 3.899998,4.9c1.600002,3.200001 -0.799999,6.799999 -2.599998,8c-1,0.700001 -1.700001,1.4 -2.400002,2.200001c0,0 -1.199997,1.099998 -1.199997,1.599998c0,0 0,38.799999 0,38.799999c3.799999,0.099998 9.099998,-0.799995 12.399998,-2c0.900002,-0.799995 2.5,-3 2.400002,-3.900002c-0.400002,-2.999996 -1.799999,-7.399998 -1.799999,-10.499996c0,-5.600002 1.199997,-9.400002 1.599998,-9.400002c0.799999,0 4.200001,7.400002 4.700001,8.900002c0.099998,1.799999 -3.400002,15.600002 -3.400002,15.600002c1,0.899994 3.700001,1.599998 5.200001,1.5c0,0 5.300003,-13.900002 6.199997,-19.400002c-0.599998,-3.700001 -6.399998,-14.900002 -8.199997,-17.400002z" class="st0"/>
 </g>
</svg>