<svg width="64" height="40" xmlns="http://www.w3.org/2000/svg">

 <g>
  <title>background</title>
  <rect fill="none" id="canvas_background" height="402" width="582" y="-1" x="-1"/>
 </g>
 <g>
  <title>Layer 1</title>
  <path id="svg_2" fill="#CCCCCC" d="m22,0c-4,0 -4,4 -4,4l0,4l12,0c-2,-4 -6,-8 -8,-8z"/>
  <path id="svg_4" fill="#E6E6E6" d="m46,24c-4,0 -14,-14 -16,-16s-4,-4 -6,-4c0,0 -2,0 -4,2s-6,4 -10,4c-2.254,0 -1.057,0 -4,0c-2,0 -4,0 -4,2l0,4c0,2 -2,5.993999 -2,12l0,6l58,0l0,-8c-10,-2 -12,-2 -12,-2z"/>
  <path id="svg_6" fill="#000000" d="m30,8c-2,-2 -4,-4 -6,-4c0,0 -2,0 -4,2c0,0 4,4 6,6c1.414,1.414 0,2.001 2,4c2,2 4,0 6,2c4,4.000999 6,8 12,8l0,-2c-4,0 -14,-14 -16,-16z"/>
  <path id="svg_8" fill-rule="evenodd" clip-rule="evenodd" fill="#bf0000" d="m34,26c0,-4 -4,-6 -4,-6s0.188999,4 -2,4c-1.653,0 -4.829,-1.181999 -8.408001,-2.802999c3.274,-4.171001 7.962002,-8.750001 10.408001,-11.197001c0,0 0,-2 -2,-4s-4,-2 -4,-2c-5.233,5.233 -9.906,9.357 -13.709,12.573c-4.631001,-2.455 -8.291,-4.573 -8.291,-4.573l0,2c0,0 2.592,1.885 6.157,4.360001c-5.097,4.237 -8.157,6.573 -8.157,7.639999c0,1.931 0,8 0,8l16,0c0,0 0,-1.823002 0,-6c0,-0.950001 0.49,-2.164 1.294001,-3.521999c4.733,3.021999 9.125999,5.521999 10.705999,5.521999c2,0 6,0 6,-4zm24,0c0,0 -2,4.000999 -8,4.000999c-2,0 -2,-2.000999 -2,-4.000999c0,0 0,-2 -2,-2s-4,2 -6,4s-8,6 -8,6l30,0l0,-3.999001c0,-4.000999 -4,-4.000999 -4,-4.000999z"/>
  <path id="svg_10" fill="#000000" d="m62,30c-2,0 -4.599998,4 -30,4c-10,0 -28,-2 -30,-2s-2,0 -2,2c0,4 0,6 7,6c6.729,0 20.547001,0 25,0c6,0 32,0 32,-8c0,0 0,-2 -2,-2z"/>
 </g>
</svg>