<svg width="80" height="80" xmlns="http://www.w3.org/2000/svg">

 <g>
  <title>background</title>
  <rect fill="none" id="canvas_background" height="402" width="582" y="-1" x="-1"/>
 </g>
 <g>
  <title>Layer 1</title>
  <path fill="#00bfbf" id="svg_1" d="m61.599998,19.4c-0.5,-0.199999 -5.099998,-1.699999 -5.599998,-2c-5.799999,-2.7 -6.299999,-6.7 -8.700001,-7.099999c-1.5,-0.3 -4.099998,-0.1 -7.099998,-0.1l-0.200001,0c-3.099998,0 -5.599998,-0.2 -7.099998,0.1c-2.400002,0.4 -2.900002,4.3 -8.700001,7.099999c-0.5,0.200001 -5.1,1.700001 -5.6,1.9c-5.200001,2.300001 -7.400001,11.900002 -10.5,16.700001c2.7,3 6.799999,4.400002 11.5,5.299999c0.6,-0.799999 2.6,-6.899998 2.699999,-5.799999c2.700001,11.299999 -1.5,26.700001 -2.699999,30.099998c1.6,2.599998 10.699999,3.800003 18.9,4.300003l2.700001,0c8.299999,-0.400002 17.299999,-1.599998 18.899998,-4.300003c-1.199997,-3.399998 -5.399998,-18.799999 -2.699997,-30.099998c0.199997,-1.099998 2.099998,5 2.699997,5.799999c4.800003,-0.899998 8.800003,-2.299999 11.5,-5.299999c-2.799995,-4.799999 -5,-14.4 -10,-16.6zm-14.399998,0.6c0,0 -5.5,4.4 -7.200001,6.4c-1.799999,-2 -7.200001,-6.4 -7.200001,-6.4l-11.199999,0c0,0 8.199999,-3.200001 10,-8c0,0.7 0.199999,1.3 0.6,2.2c0,-0.4 0,-0.8 0,-1.099999c0.299999,-1.5 3.399998,-1.200001 7.599998,-1.200001l0.200001,0c0,0 0,0 0,0s0,0 0,0l0.200001,0c4.200001,0 7.299999,-0.299999 7.599998,1.200001c0.100002,0.299999 0.100002,0.7 0,1.099999c0.400002,-1 0.600002,-1.5 0.600002,-2.2c1.899998,4.799999 10,8 10,8l-11.200001,0zm-7,-4.6l-0.200001,0c0,0 0,0 0,0s0,0 0,0l-0.200001,0c-3.099998,0 -5.700001,-0.099999 -6.899998,0.400001c1.899998,3.599999 6.899998,10.2 7,10.7c0.099998,-0.5 5.099998,-7.1 7,-10.7c-1.100002,-0.6 -3.600002,-0.400001 -6.700001,-0.400001z" class="st0"/>
 </g>
</svg>